<svg width="131" height="25" viewBox="0 0 131 25" fill="none" xmlns="http://www.w3.org/2000/svg">
<g clip-path="url(#clip0_1038_1160)">
<path d="M97.7613 6.06741C98.7876 6.06741 99.7194 6.19795 100.557 6.45903C101.394 6.72012 102.101 7.05773 102.677 7.47187C103.037 7.72395 103.321 8.00304 103.528 8.30915C103.735 8.61525 103.838 9.01138 103.838 9.49754V18.9507L103.834 19.2077C103.804 20.0537 103.625 20.7918 103.298 21.422C102.938 22.1152 102.447 22.6914 101.826 23.1505C101.205 23.6097 100.476 23.9473 99.6384 24.1634C98.8011 24.3795 97.9053 24.4875 96.951 24.4875C95.3125 24.4875 94.025 24.2669 93.0887 23.8258C92.1524 23.3846 91.6843 22.6689 91.6843 21.6786C91.6843 21.2644 91.7698 20.8998 91.9408 20.5847C92.1119 20.2696 92.3055 20.031 92.5215 19.869C93.0437 20.1571 93.6334 20.4001 94.2906 20.5982C94.9478 20.7963 95.6276 20.8953 96.3298 20.8953C97.3021 20.8953 98.0764 20.7332 98.6526 20.4091C99.2288 20.085 99.5168 19.5629 99.5168 18.8426V18.4105L99.3115 18.4949C98.6136 18.7627 97.7817 18.8966 96.816 18.8966C96.0057 18.8966 95.2359 18.7751 94.5067 18.532C93.7775 18.2889 93.1382 17.9108 92.5891 17.3976C92.0399 16.8845 91.5987 16.2228 91.2656 15.4125C90.9325 14.6022 90.766 13.6389 90.766 12.5225C90.766 11.4242 90.9415 10.4699 91.2926 9.65959C91.6437 8.84932 92.1299 8.1786 92.7511 7.64743C93.3723 7.11625 94.1106 6.72012 94.9658 6.45903C95.8211 6.19795 96.7529 6.06741 97.7613 6.06741ZM25.0608 6.4867C26.6666 6.4867 27.9805 6.84701 29.0027 7.56763C30.0249 8.28825 30.63 9.56109 30.818 11.3861H27.3872L27.3543 11.1842C27.2767 10.7862 27.127 10.4227 26.9055 10.0937C26.5295 9.57675 25.946 9.31827 25.1548 9.31827C24.0269 9.31827 23.2554 9.87832 22.8402 10.9984C22.6209 11.5937 22.5113 12.3848 22.5113 13.3718C22.5113 14.3117 22.6209 15.0676 22.8402 15.6394C23.2397 16.7046 23.9917 17.2373 25.0961 17.2373C25.8794 17.2373 26.4355 17.0258 26.7645 16.6028C27.0935 16.1798 27.2932 15.6315 27.3637 14.9579H30.7827L30.7595 15.1919C30.646 16.1241 30.2856 17.0095 29.6783 17.8482C28.6287 19.313 27.0739 20.0453 25.0138 20.0453C22.9538 20.0453 21.4382 19.4344 20.4669 18.2125C19.4956 16.9905 19.01 15.4044 19.01 13.454C19.01 11.253 19.5465 9.5415 20.6196 8.31958C21.6927 7.09766 23.1731 6.4867 25.0608 6.4867ZM56.1783 6.45145C57.2435 6.45145 58.203 6.65119 59.0568 7.05066C59.9106 7.45014 60.6156 8.08068 61.1717 8.94229C61.673 9.70208 61.9981 10.5833 62.1469 11.5859C62.233 12.1733 62.2683 13.0193 62.2526 14.1237H53.4877L53.4997 14.3464C53.5834 15.5129 53.9828 16.3395 54.6978 16.826C55.16 17.1472 55.7161 17.3078 56.3662 17.3078C57.0555 17.3078 57.6156 17.1119 58.0464 16.7203C58.2814 16.5088 58.4889 16.2151 58.6691 15.8391H62.0881L62.0628 16.0147C61.9393 16.7177 61.5522 17.4307 60.9015 18.1537C59.8049 19.3991 58.2696 20.0218 56.2958 20.0218C54.6665 20.0218 53.2292 19.497 51.9838 18.4474C50.7384 17.3978 50.1156 15.6903 50.1156 13.3248C50.1156 11.1081 50.6776 9.40835 51.8017 8.22559C52.9257 7.04283 54.3845 6.45145 56.1783 6.45145ZM79.6898 1.74598C80.086 1.74598 80.4416 1.77299 80.7567 1.82701C81.0718 1.88102 81.3374 1.98906 81.5535 2.15111C81.7695 2.31317 81.9361 2.53374 82.0531 2.81283C82.1702 3.09192 82.2287 3.45654 82.2287 3.90669V19.5719L82.138 19.5881C81.9451 19.6223 81.6827 19.6664 81.3509 19.7204C80.9638 19.7834 80.5721 19.8149 80.176 19.8149C79.7799 19.8149 79.4243 19.7879 79.1092 19.7339C78.7941 19.6799 78.5285 19.5719 78.3124 19.4098C78.0963 19.2478 77.9298 19.0272 77.8127 18.7481C77.6957 18.469 77.6372 18.1044 77.6372 17.6542V1.98906L77.7278 1.9728C77.9208 1.93862 78.1831 1.89453 78.515 1.84051C78.9021 1.77749 79.2937 1.74598 79.6898 1.74598ZM86.5919 6.41852C86.988 6.41852 87.3436 6.44553 87.6587 6.49955C87.9738 6.55357 88.2394 6.6616 88.4555 6.82365C88.6715 6.98571 88.8381 7.20628 88.9551 7.48537C89.0722 7.76447 89.1307 8.12909 89.1307 8.57923V19.5719L89.04 19.5881C88.8471 19.6223 88.5847 19.6664 88.2529 19.7204C87.8658 19.7834 87.4741 19.8149 87.078 19.8149C86.6819 19.8149 86.3263 19.7879 86.0112 19.7339C85.6961 19.6799 85.4305 19.5719 85.2144 19.4098C84.9983 19.2478 84.8318 19.0272 84.7147 18.7481C84.5977 18.469 84.5392 18.1044 84.5392 17.6542V6.6616L84.6298 6.64534C84.8228 6.61117 85.0851 6.56707 85.417 6.51305C85.8041 6.45003 86.1957 6.41852 86.5919 6.41852ZM108.093 1.74598C108.49 1.74598 108.845 1.77299 109.16 1.82701C109.475 1.88102 109.741 1.98906 109.957 2.15111C110.173 2.31317 110.34 2.53374 110.457 2.81283C110.574 3.09192 110.632 3.45654 110.632 3.90669V6.55357L110.726 6.51917C110.957 6.43744 111.282 6.34537 111.699 6.24296C112.176 6.12592 112.703 6.06741 113.279 6.06741C115.062 6.06741 116.453 6.51305 117.452 7.40435C118.451 8.29564 118.951 9.62358 118.951 11.3882V19.5719L118.867 19.595C118.688 19.6413 118.432 19.6876 118.1 19.7339C117.713 19.7879 117.312 19.8149 116.898 19.8149C116.502 19.8149 116.147 19.7879 115.831 19.7339C115.516 19.6799 115.251 19.5719 115.035 19.4098C114.819 19.2478 114.652 19.0272 114.535 18.7481C114.418 18.469 114.359 18.1044 114.359 17.6542V11.6583L114.356 11.4918C114.33 10.8417 114.147 10.3795 113.806 10.1052C113.437 9.80814 112.982 9.65959 112.442 9.65959C112.082 9.65959 111.74 9.70461 111.416 9.79464C111.091 9.88467 110.83 9.9927 110.632 10.1187V19.5719L110.549 19.595C110.369 19.6413 110.113 19.6876 109.781 19.7339C109.394 19.7879 108.994 19.8149 108.58 19.8149C108.183 19.8149 107.828 19.7879 107.513 19.7339C107.198 19.6799 106.932 19.5719 106.716 19.4098C106.5 19.2478 106.333 19.0272 106.216 18.7481C106.099 18.469 106.041 18.1044 106.041 17.6542V1.98906L106.131 1.9728C106.324 1.93862 106.587 1.89453 106.919 1.84051C107.306 1.77749 107.697 1.74598 108.093 1.74598ZM75.7588 3.23147L75.8207 3.33613C75.922 3.51994 76.0139 3.75064 76.0964 4.02823C76.1955 4.36134 76.245 4.70796 76.245 5.06808C76.245 5.77031 76.0964 6.26997 75.7993 6.56707C75.5022 6.86417 75.1016 7.01272 74.5974 7.01272H68.9256V10.0647H74.8405L74.9107 10.169C75.0245 10.3516 75.1226 10.5779 75.2051 10.848C75.3042 11.1721 75.3537 11.5142 75.3537 11.8743C75.3537 12.5585 75.2051 13.0492 74.908 13.3463C74.6109 13.6434 74.2103 13.792 73.7061 13.792H68.9796V19.4908L68.8878 19.514C68.6905 19.5603 68.4105 19.6066 68.0478 19.6529C67.6246 19.7069 67.206 19.7339 66.7919 19.7339C66.3777 19.7339 66.0131 19.7024 65.698 19.6394C65.3829 19.5764 65.1173 19.4638 64.9012 19.3018C64.6852 19.1397 64.5231 18.9146 64.4151 18.6266C64.307 18.3385 64.253 17.9603 64.253 17.4922V5.7433L64.2577 5.55311C64.2921 4.86813 64.5156 4.31933 64.9282 3.90669C65.3784 3.45654 65.9906 3.23147 66.7649 3.23147H75.7588ZM12.278 2.30396V5.34702H3.59527V9.33002H11.197V12.3378H3.59527V19.5989H0V2.30396H12.278ZM17.1831 6.79218V19.5989H13.7876V6.79218H17.1831ZM35.6879 2.33921V11.6681L39.8589 6.85092H44.0064L39.5299 11.7504L44.1826 19.5989H40.1409L37.0743 14.1237L35.6879 15.5689V19.5989H32.3981V2.33921H35.6879ZM48.5473 2.28046V19.5989H45.1987V2.28046H48.5473ZM119.201 3.1204C119.762 2.95161 120.72 2.91406 121.842 3.40999C122.974 3.91064 123.68 4.76936 123.96 5.98616L130.037 6.50265C130.112 6.50701 130.187 6.52226 130.261 6.54839C130.373 6.58758 130.433 6.64272 130.483 6.68588C130.607 6.79171 130.647 6.87332 130.706 7.01944C130.81 7.27928 130.778 7.5851 130.642 7.79479C130.423 8.13286 130.079 8.35161 129.611 8.45102L124.706 9.4938L125.572 13.5681C125.671 14.0357 125.89 14.337 126.229 14.4718C126.568 14.6065 127.007 14.6166 127.547 14.5019C127.816 14.4445 128.091 14.3628 128.369 14.2566C128.647 14.1505 128.886 14.0385 129.087 13.9207C129.291 14.0841 129.477 14.2748 129.646 14.4928C129.814 14.7108 129.935 14.9907 130.007 15.3324C130.276 16.5959 128.287 17.7895 126.984 18.0238C125.777 18.2407 123.924 18.4209 122.866 15.6468C121.807 12.8726 120.143 8.22257 118.874 4.34737C118.764 4.01295 118.696 3.68449 118.814 3.41345C118.878 3.26696 118.924 3.20372 119.201 3.1204ZM97.9773 9.65959C97.0951 9.65959 96.4333 9.90717 95.9922 10.4023C95.551 10.8975 95.3305 11.6042 95.3305 12.5225C95.3305 13.5669 95.551 14.3186 95.9922 14.7778C96.4333 15.2369 96.996 15.4665 97.6802 15.4665C98.4185 15.4665 99.0037 15.2955 99.4358 14.9533V9.9837L99.3532 9.94048C99.2336 9.88287 99.0766 9.82525 98.8821 9.76763C98.6391 9.6956 98.3375 9.65959 97.9773 9.65959ZM56.1783 9.21252C55.4028 9.21252 54.8016 9.45534 54.3747 9.94098C53.9479 10.4266 53.6796 11.0846 53.5699 11.9149H58.7748C58.72 11.0297 58.4517 10.3581 57.97 9.89986C57.4883 9.44163 56.891 9.21252 56.1783 9.21252ZM17.1831 2.17472V5.26477H13.7876V2.17472H17.1831ZM86.8349 0.395533C87.5912 0.395533 88.1989 0.62961 88.658 1.09776C89.1172 1.56592 89.3468 2.14211 89.3468 2.82634C89.3468 3.51056 89.1172 4.08675 88.658 4.55491C88.1989 5.02306 87.5912 5.25714 86.8349 5.25714C86.0787 5.25714 85.471 5.02306 85.0118 4.55491C84.5527 4.08675 84.3231 3.51056 84.3231 2.82634C84.3231 2.14211 84.5527 1.56592 85.0118 1.09776C85.471 0.62961 86.0787 0.395533 86.8349 0.395533Z" fill="url(#paint0_linear_1038_1160)"/>
</g>
<defs>
<linearGradient id="paint0_linear_1038_1160" x1="121.273" y1="12.1548" x2="1.20141" y2="24.3767" gradientUnits="userSpaceOnUse">
<stop stop-color="#299BD8"/>
<stop offset="1" stop-color="#1262AF"/>
</linearGradient>
<clipPath id="clip0_1038_1160">
<rect width="130.072" height="24.6688" fill="white" transform="scale(1.00714)"/>
</clipPath>
</defs>
</svg>
