<svg width="49" height="49" viewBox="0 0 49 49" fill="none" xmlns="http://www.w3.org/2000/svg">
<rect width="49" height="49" rx="11.9606" fill="#36DA76"/>
<path d="M30.8456 34.0507C30.8045 33.1713 30.75 32.2966 30.7064 31.4239C30.5654 28.6937 30.5769 25.9236 30.4294 23.1799C30.2819 20.4568 30.3694 17.7319 30.2915 15.0089C30.2759 14.443 30.3011 13.3253 29.7156 13.0027C28.4559 12.3096 27.708 14.2 27.3876 14.9697C26.8098 16.3666 26.4761 17.8359 26.0634 19.2831C25.7117 20.5219 25.3112 21.7567 25.1755 23.0394C25.0749 24.0018 25.0842 25.0792 25.5869 25.9464C25.8394 26.3822 26.276 26.6788 26.773 26.8042C27.2889 26.9362 27.8788 26.7634 28.3683 26.9964C28.4945 27.0573 28.6057 27.184 28.6564 27.312C28.815 27.7243 28.6649 28.35 28.6153 28.7753C28.4582 30.1458 28.292 31.5298 28.2176 32.9068C28.1736 33.7395 28.125 34.806 28.6287 35.5316C28.9375 35.9722 29.5633 36.3836 30.1279 36.1646C30.9719 35.8416 30.8807 34.7504 30.8456 34.0507Z" fill="white"/>
<path d="M20.1095 13.6106C19.867 13.7078 19.9589 14.5749 19.9481 14.8413C19.9322 15.32 19.9649 15.9533 19.9072 16.5736C19.9069 16.5792 19.9061 16.583 19.9053 16.5868C19.9003 16.63 19.8962 16.6765 19.8891 16.7256C19.8816 16.773 19.8735 16.8187 19.8677 16.8656C19.816 17.1681 19.7176 17.5262 19.5316 17.6979C19.3204 17.8943 18.8471 17.853 18.6827 17.621C18.4138 17.2432 18.434 16.3999 18.4177 16.375C18.4067 15.976 18.3486 14.7693 18.2614 13.9737C18.2542 13.9137 18.2426 13.5531 17.9133 13.5146C17.7598 13.4979 17.5982 13.6287 17.5459 13.8677C17.3912 14.5731 17.2464 15.9177 17.2373 16.1292C17.2354 16.1497 17.2345 16.1735 17.2344 16.1936C17.2344 16.1936 17.2336 16.1974 17.2341 16.1991C17.2331 16.243 17.1808 17.2964 16.9142 17.6599C16.7749 17.8504 16.4131 18.0003 16.0537 17.7987C15.9105 17.7175 15.8124 17.561 15.7432 17.3935C15.3673 16.2234 15.7047 14.9344 15.7528 14.3203C15.767 14.1475 15.9234 13.5707 15.5744 13.59C15.0489 13.6186 14.3703 15.8575 14.249 16.3706C13.9515 17.6475 13.9064 19.0118 14.4238 20.2434C14.7113 20.9255 15.2735 21.4837 15.9707 21.7544C16.2789 21.873 16.6213 21.959 16.9839 22.0089C16.8534 24.9116 16.7053 27.9406 16.5704 29.6263C16.4667 30.8949 16.3442 32.1774 16.3607 33.4512C16.3704 34.2123 16.3624 35.1198 16.862 35.7579C17.3846 36.4246 18.4868 36.1179 18.7845 35.3301C19.1183 34.442 19.0212 33.4072 18.9075 31.7767C18.7934 30.1444 18.6649 27.9178 18.5941 26.7198C18.4905 24.9557 18.4543 23.4142 18.4444 22.0078C19.3726 21.8752 20.2383 21.4769 20.7228 20.7444C20.9354 20.424 21.0753 20.0661 21.1709 19.6977C21.3175 19.1399 21.389 18.5287 21.3574 17.9533C21.3252 17.4234 20.8897 13.298 20.1095 13.6106Z" fill="white"/>
</svg>
