<svg width="49" height="49" viewBox="0 0 49 49" fill="none" xmlns="http://www.w3.org/2000/svg">
<rect width="49" height="49" rx="11.9606" fill="#F9668D"/>
<path d="M23.6425 21.0997H25.3587V20.2496C25.3587 20.0242 25.4492 19.8079 25.6101 19.6485C25.771 19.4891 25.9893 19.3995 26.2169 19.3995H28.7913C29.0189 19.3995 29.2371 19.4891 29.3981 19.6485C29.559 19.8079 29.6494 20.0242 29.6494 20.2496V21.0997H33.0819V17.6994C33.0819 16.7975 32.7203 15.9327 32.0766 15.295C31.4328 14.6573 30.5598 14.299 29.6494 14.299H19.3518C18.4415 14.299 17.5684 14.6573 16.9247 15.295C16.2809 15.9327 15.9193 16.7975 15.9193 17.6994V21.0997H19.3518V20.2496C19.3518 20.0242 19.4422 19.8079 19.6032 19.6485C19.7641 19.4891 19.9824 19.3995 20.21 19.3995H22.7844C23.0119 19.3995 23.2302 19.4891 23.3911 19.6485C23.5521 19.8079 23.6425 20.0242 23.6425 20.2496V21.0997Z" fill="white"/>
<path d="M16.7776 22.7999C15.6397 22.7999 14.5484 23.2477 13.7437 24.0448C12.9391 24.8419 12.4871 25.923 12.4871 27.0503V33.851C12.4871 34.0765 12.5775 34.2927 12.7384 34.4521C12.8993 34.6115 13.1176 34.7011 13.3452 34.7011C13.5728 34.7011 13.791 34.6115 13.952 34.4521C14.1129 34.2927 14.2033 34.0765 14.2033 33.851V29.6006H34.7975V33.851C34.7975 34.0765 34.8879 34.2927 35.0489 34.4521C35.2098 34.6115 35.428 34.7011 35.6556 34.7011C35.8832 34.7011 36.1015 34.6115 36.2624 34.4521C36.4233 34.2927 36.5137 34.0765 36.5137 33.851V27.0503C36.5137 25.923 36.0617 24.8419 35.2571 24.0448C34.4525 23.2477 33.3612 22.7999 32.2233 22.7999H16.7776Z" fill="white"/>
</svg>
