<svg width="49" height="49" viewBox="0 0 49 49" fill="none" xmlns="http://www.w3.org/2000/svg">
<rect width="49" height="49" rx="11.9606" fill="#FF9B53"/>
<path d="M28.7008 13.5209C28.2071 13.0321 27.5376 12.7575 26.8395 12.7575C26.1414 12.7575 25.4719 13.0321 24.9782 13.5209L13.4171 24.9753C13.1726 25.2175 12.9786 25.5051 12.8463 25.8215C12.7139 26.138 12.6458 26.4772 12.6458 26.8198C12.6458 27.1624 12.7139 27.5016 12.8463 27.818C12.9786 28.1345 13.1726 28.4221 13.4171 28.6643L14.7886 30.0219C15.3855 30.6143 16.2246 30.5088 16.7313 30.2097C17.0108 30.0453 17.3376 29.9778 17.6602 30.0179C17.9828 30.058 18.2827 30.2033 18.5125 30.4311C18.7424 30.6588 18.8891 30.9559 18.9296 31.2754C18.9701 31.595 18.9019 31.9188 18.736 32.1957C18.4352 32.6977 18.3275 33.5289 18.9255 34.1202L20.2983 35.479C20.5428 35.7212 20.833 35.9133 21.1525 36.0444C21.472 36.1755 21.8144 36.243 22.1602 36.243C22.506 36.243 22.8484 36.1755 23.1678 36.0444C23.4873 35.9133 23.7776 35.7212 24.0221 35.479L35.582 24.0269C35.8265 23.7847 36.0205 23.4971 36.1528 23.1807C36.2851 22.8642 36.3532 22.525 36.3532 22.1824C36.3532 21.8398 36.2851 21.5006 36.1528 21.1841C36.0205 20.8677 35.8265 20.5801 35.582 20.3379L34.2116 18.9791C33.6148 18.3879 32.7745 18.4922 32.2678 18.7913C31.9883 18.9557 31.6614 19.0232 31.3389 18.9831C31.0163 18.9431 30.7164 18.7977 30.4866 18.57C30.2567 18.3422 30.1099 18.0451 30.0695 17.7256C30.029 17.4061 30.0972 17.0823 30.2631 16.8053C30.5651 16.3033 30.6716 15.4721 30.0735 14.8808L28.702 13.5209H28.7008Z" fill="white"/>
</svg>
