<svg width="53" height="49" viewBox="0 0 53 49" fill="none" xmlns="http://www.w3.org/2000/svg">
<rect width="52.4569" height="49" rx="11.9606" fill="#4DABFF"/>
<path d="M34.4006 17.8088C34.1644 17.164 33.5031 16.705 32.7236 16.705H29.7712V15.6122C29.7712 15.0111 29.2397 14.5193 28.5902 14.5193H23.8663C23.2168 14.5193 22.6853 15.0111 22.6853 15.6122V16.705H19.7329C18.9535 16.705 18.3039 17.164 18.0559 17.8088L15.7294 24.0053C15.6467 24.2348 15.5995 24.4752 15.5995 24.7265V32.5514C15.5995 33.4584 16.3908 34.1906 17.371 34.1906C18.3512 34.1906 19.1424 33.4584 19.1424 32.5514V32.0049H33.3141V32.5514C33.3141 33.4475 34.1053 34.1906 35.0856 34.1906C36.054 34.1906 36.857 33.4584 36.857 32.5514V24.7265C36.857 24.4861 36.8098 24.2348 36.7271 24.0053L34.4006 17.8088ZM19.7329 28.7264C18.7527 28.7264 17.9614 27.9942 17.9614 27.0871C17.9614 26.18 18.7527 25.4478 19.7329 25.4478C20.7131 25.4478 21.5044 26.18 21.5044 27.0871C21.5044 27.9942 20.7131 28.7264 19.7329 28.7264ZM32.7236 28.7264C31.7434 28.7264 30.9522 27.9942 30.9522 27.0871C30.9522 26.18 31.7434 25.4478 32.7236 25.4478C33.7038 25.4478 34.4951 26.18 34.4951 27.0871C34.4951 27.9942 33.7038 28.7264 32.7236 28.7264ZM17.9614 23.2621L19.7329 18.3443H32.7236L34.4951 23.2621H17.9614Z" fill="white"/>
</svg>
