<svg width="49" height="49" viewBox="0 0 49 49" fill="none" xmlns="http://www.w3.org/2000/svg">
<rect width="49" height="49" rx="11.9606" fill="#79CA00"/>
<path d="M32.3261 15.7773H16.6735C15.5944 15.7773 14.7169 16.6466 14.7169 17.7156V31.2839C14.7169 32.3529 15.5944 33.2222 16.6735 33.2222H32.3261C33.4051 33.2222 34.2826 32.3529 34.2826 31.2839V17.7156C34.2826 16.6466 33.4051 15.7773 32.3261 15.7773ZM32.327 21.5923C32.3261 21.5923 32.3261 21.5923 32.327 21.5923H31.8721L29.263 17.7156H32.3261L32.327 21.5923ZM27.9238 27.4072L22.5432 30.3147V24.4998L27.9238 27.4072ZM26.9807 21.5923L24.3716 17.7156H26.9112L29.5203 21.5923H26.9807ZM24.6289 21.5923H22.0893L19.4802 17.7156H22.0198L24.6289 21.5923ZM16.6735 17.7156H17.1284L19.7375 21.5923H16.6735V17.7156Z" fill="white"/>
</svg>
