<svg width="49" height="49" viewBox="0 0 49 49" fill="none" xmlns="http://www.w3.org/2000/svg">
<rect width="49" height="49" rx="11.9606" fill="#FDBF00"/>
<path d="M14.4139 30.4751C14.4139 31.5742 14.9056 32.5608 15.6747 33.2478V34.8465C15.6747 35.8831 16.5194 36.7199 17.5658 36.7199C18.6122 36.7199 19.4569 35.8831 19.4569 34.8465V34.222H29.5428V34.8465C29.5428 35.8706 30.3875 36.7199 31.4339 36.7199C32.4677 36.7199 33.325 35.8831 33.325 34.8465V33.2478C34.094 32.5608 34.5857 31.5742 34.5857 30.4751V17.9853C34.5857 13.6139 30.0723 12.9894 24.4998 12.9894C18.9274 12.9894 14.4139 13.6139 14.4139 17.9853V30.4751ZM18.8265 31.724C17.7801 31.724 16.9354 30.8872 16.9354 29.8506C16.9354 28.8139 17.7801 27.9771 18.8265 27.9771C19.8729 27.9771 20.7176 28.8139 20.7176 29.8506C20.7176 30.8872 19.8729 31.724 18.8265 31.724ZM30.1731 31.724C29.1267 31.724 28.282 30.8872 28.282 29.8506C28.282 28.8139 29.1267 27.9771 30.1731 27.9771C31.2196 27.9771 32.0643 28.8139 32.0643 29.8506C32.0643 30.8872 31.2196 31.724 30.1731 31.724ZM32.0643 24.2302H16.9354V17.9853H32.0643V24.2302Z" fill="white"/>
</svg>
